<?xml version="1.0" encoding="UTF-8" standalone="no"?>
<!DOCTYPE svg PUBLIC "-//W3C//DTD SVG 1.1//EN" "http://www.w3.org/Graphics/SVG/1.1/DTD/svg11.dtd">
<svg version="1.1" xmlns="http://www.w3.org/2000/svg" xmlns:xlink="http://www.w3.org/1999/xlink" preserveAspectRatio="xMidYMid meet" viewBox="0 0 640 640" width="640" height="640"><defs><path d="M550 351.47L460 350L460 390L400 390L400 426.29L250 426.29L250 390L193.43 390L193.43 350L100 350L100 153.57L550 150L550 351.47Z" id="anCHA8KiX"></path><path d="M550 351.47L460 350L460 390L400 390L400 426.29L250 426.29L250 390L193.43 390L193.43 350L100 350L100 153.57L550 150L550 351.47Z" id="blPFUk1gh"></path><path d="M170 310L230 310L230 340L140 340L140 172.59L170 170L170 310Z" id="baKZpsfT9L"></path><path d="M170 310L230 310L230 340L140 340L140 172.59L170 170L170 310Z" id="a2CkwagAZS"></path><path d="M290 280L320 280L330 340L360 340L330 170L291.54 170L250 340L280 340L290 280Z" id="a3im1QUuJh"></path><path d="M290 280L320 280L330 340L360 340L330 170L291.54 170L250 340L280 340L290 280Z" id="ao3jq7kpt"></path><path d="M322.31 260L292.31 260L312.31 200L322.31 260Z" id="e9cDhPmJz"></path><path d="M322.31 260L292.31 260L312.31 200L322.31 260Z" id="f1vXSXEtH3"></path><path d="M425.45 201.96L475.45 340L510 340L505.45 170L475.45 170L475.45 280L435.45 170L405.45 170L405.45 340L433.08 340L425.45 201.96Z" id="i2L3MDSWVp"></path><path d="M425.45 201.96L475.45 340L510 340L505.45 170L475.45 170L475.45 280L435.45 170L405.45 170L405.45 340L433.08 340L425.45 201.96Z" id="dtb4DPe5Z"></path></defs><g><g><g><use xlink:href="#anCHA8KiX" opacity="1" fill="#ffffff" fill-opacity="1"></use><g><use xlink:href="#anCHA8KiX" opacity="1" fill-opacity="0" stroke="#000000" stroke-width="1" stroke-opacity="0"></use></g></g><g><use xlink:href="#blPFUk1gh" opacity="1" fill="#000000" fill-opacity="0"></use><g><use xlink:href="#blPFUk1gh" opacity="1" fill-opacity="0" stroke="#000000" stroke-width="6" stroke-opacity="1"></use></g></g><g><use xlink:href="#baKZpsfT9L" opacity="1" fill="#fb5656" fill-opacity="1"></use><g><use xlink:href="#baKZpsfT9L" opacity="1" fill-opacity="0" stroke="#000000" stroke-width="1" stroke-opacity="0"></use></g></g><g><use xlink:href="#a2CkwagAZS" opacity="1" fill="#000000" fill-opacity="0"></use><g><use xlink:href="#a2CkwagAZS" opacity="1" fill-opacity="0" stroke="#000000" stroke-width="4" stroke-opacity="1"></use></g></g><g><use xlink:href="#a3im1QUuJh" opacity="1" fill="#0c56ff" fill-opacity="1"></use><g><use xlink:href="#a3im1QUuJh" opacity="1" fill-opacity="0" stroke="#000000" stroke-width="1" stroke-opacity="0"></use></g></g><g><use xlink:href="#ao3jq7kpt" opacity="1" fill="#000000" fill-opacity="0"></use><g><use xlink:href="#ao3jq7kpt" opacity="1" fill-opacity="0" stroke="#000000" stroke-width="4" stroke-opacity="1"></use></g></g><g><use xlink:href="#e9cDhPmJz" opacity="1" fill="#ffffff" fill-opacity="1"></use><g><use xlink:href="#e9cDhPmJz" opacity="1" fill-opacity="0" stroke="#000000" stroke-width="1" stroke-opacity="0"></use></g></g><g><use xlink:href="#f1vXSXEtH3" opacity="1" fill="#000000" fill-opacity="0"></use><g><use xlink:href="#f1vXSXEtH3" opacity="1" fill-opacity="0" stroke="#000000" stroke-width="4" stroke-opacity="1"></use></g></g><g><use xlink:href="#i2L3MDSWVp" opacity="1" fill="#68ff48" fill-opacity="1"></use><g><use xlink:href="#i2L3MDSWVp" opacity="1" fill-opacity="0" stroke="#000000" stroke-width="1" stroke-opacity="0"></use></g></g><g><use xlink:href="#dtb4DPe5Z" opacity="1" fill="#000000" fill-opacity="0"></use><g><use xlink:href="#dtb4DPe5Z" opacity="1" fill-opacity="0" stroke="#000000" stroke-width="4" stroke-opacity="1"></use></g></g></g></g></svg>